<svg xmlns="http://www.w3.org/2000/svg" xmlns:xlink="http://www.w3.org/1999/xlink" width="400" zoomAndPan="magnify" viewBox="0 0 300 187.499995" height="250" preserveAspectRatio="xMidYMid meet" version="1.2"><defs/><g id="3b832a5969"><path style=" stroke:none;fill-rule:nonzero;fill:#8de7dd;fill-opacity:1;" d="M 192.183594 78.996094 C 189.363281 56.261719 160.957031 50.089844 150.515625 71.222656 C 141.023438 50.9375 111.03125 56.425781 109.34375 78.210938 C 109.265625 79.019531 109.285156 78.984375 108.484375 78.960938 C 81.863281 77.570312 72.484375 115.136719 96.847656 126.054688 C 107.492188 130.929688 121.382812 127.636719 128.097656 117.871094 C 128.5625 116.980469 128.792969 117.84375 129.171875 118.300781 C 136.632812 129.257812 153 131.894531 163.8125 124.445312 C 166.667969 122.535156 169.035156 120.132812 170.878906 117.226562 C 171.425781 116.359375 171.421875 116.367188 171.941406 117.203125 C 176.375 124.558594 184.5 128.785156 193.007812 128.683594 C 227.226562 127.890625 225.429688 78.445312 192.183594 78.996094 Z M 188.40625 74.253906 C 188.945312 75.65625 189.085938 77.230469 189.476562 78.699219 C 189.347656 78.992188 189.242188 79.425781 189.148438 79.421875 C 188.703125 79.410156 188.910156 79.007812 188.875 78.769531 C 188.75 77.269531 188.328125 75.746094 188.40625 74.253906 Z M 208.460938 96.777344 C 208.003906 117.683594 174.277344 122.734375 173.976562 99.070312 C 174.027344 78.507812 207.105469 75.230469 208.460938 96.777344 Z M 151.660156 78.851562 C 152.023438 69.558594 159.824219 61.113281 169.277344 60.847656 C 186.9375 62.183594 187.304688 81.964844 170.402344 85.265625 C 168.992188 85.300781 167.253906 85.941406 166 85.113281 C 163.445312 83.066406 160.621094 81.496094 157.484375 80.523438 C 157.082031 80.398438 156.859375 80.164062 156.695312 79.820312 C 154.601562 75.699219 155.480469 70.875 157.824219 67.078125 C 154.757812 70.121094 153.34375 74.609375 152.921875 78.839844 C 152.902344 79.050781 152.828125 79.40625 152.730469 79.425781 C 152.238281 79.457031 151.515625 79.628906 151.660156 78.851562 Z M 145.835938 114.675781 C 125.183594 114.441406 126.234375 85.546875 145.050781 82.519531 C 171.601562 79.414062 170.699219 114.050781 145.835938 114.675781 Z M 112.558594 76.386719 C 114.296875 65.28125 127.765625 56.878906 137.667969 63.816406 C 143.789062 66.746094 145.699219 75.292969 141.101562 80.355469 C 140.792969 80.734375 140.347656 81.0625 139.894531 81.25 C 137.207031 82.351562 134.777344 83.859375 132.613281 85.789062 C 131.214844 86.949219 130.117188 88.554688 128.433594 88.773438 C 127.703125 88.789062 126.578125 87.203125 125.152344 86.164062 C 122.832031 84.476562 121.09375 82.785156 118.46875 81.242188 C 116.429688 80.050781 116.226562 77.148438 116.09375 74.769531 C 115.992188 72.414062 117 70.105469 117.976562 67.886719 C 115.441406 70.757812 113.925781 74.585938 113.5625 78.429688 C 113.535156 79.101562 113.203125 79.847656 112.445312 79.398438 C 111.929688 78.605469 112.5 77.300781 112.558594 76.386719 Z M 127.226562 93.945312 C 125.691406 91.542969 124.226562 89.105469 122.085938 87.152344 C 121.925781 86.976562 121.75 86.929688 121.742188 86.644531 C 122.949219 87.40625 128.46875 92.710938 127.226562 93.945312 Z M 102.851562 82.167969 C 129.742188 78.785156 128.597656 113.648438 103.648438 114.34375 C 81.917969 113.886719 84.8125 84.585938 102.851562 82.167969 Z M 105.578125 126.304688 C 86.554688 125.546875 77.664062 101.035156 91.125 88.257812 C 79.847656 102.984375 88.910156 124.285156 107.492188 124.167969 C 124.558594 123.792969 125.925781 109.703125 127.292969 115.359375 C 123.410156 123.074219 113.972656 127.003906 105.578125 126.304688 Z M 133.179688 119.898438 C 124.886719 111.683594 125.035156 97.128906 133.183594 88.882812 C 122.648438 104.199219 130.636719 124.480469 150.179688 124.566406 C 170.195312 124.183594 177.574219 100.359375 164.285156 87.699219 C 169.359375 91.449219 172.195312 97.671875 172.535156 103.847656 C 173.625 124.347656 146.769531 134.535156 133.179688 119.898438 Z M 190.921875 126.789062 C 182.949219 126.035156 176.890625 122.140625 172.933594 115.105469 C 172.253906 114.113281 172.886719 112.972656 173.320312 112.015625 C 182.9375 132.757812 214.644531 126.367188 214.605469 103.09375 C 214.601562 97.066406 211.929688 91.539062 207.445312 87.042969 C 225.515625 100.679688 212.96875 129.210938 190.921875 126.789062 Z M 190.921875 126.789062 "/><path style=" stroke:none;fill-rule:nonzero;fill:#8de7dd;fill-opacity:1;" d="M 97.707031 90.269531 C 98.976562 89.34375 100.308594 88.542969 101.796875 88.015625 C 104.042969 87.492188 103.683594 84.554688 101.402344 84.566406 C 99.09375 84.824219 92.445312 87.699219 94.308594 90.679688 C 95.179688 91.8125 96.785156 91.046875 97.707031 90.269531 Z M 97.707031 90.269531 "/><path style=" stroke:none;fill-rule:nonzero;fill:#8de7dd;fill-opacity:1;" d="M 139.800781 90.746094 C 141.113281 89.78125 142.496094 88.953125 144.023438 88.375 C 145.949219 87.695312 145.882812 85.972656 144.519531 85.191406 C 143.964844 84.871094 143.300781 84.792969 142.679688 84.9375 C 140.988281 85.324219 138.542969 86.851562 137.007812 88.269531 C 136.273438 88.976562 135.90625 90.179688 136.675781 91.011719 C 137.5 92.035156 138.925781 91.449219 139.800781 90.746094 Z M 139.800781 90.746094 "/><path style=" stroke:none;fill-rule:nonzero;fill:#8de7dd;fill-opacity:1;" d="M 183.074219 90.679688 C 184.472656 89.644531 185.945312 88.75 187.597656 88.167969 C 189.859375 87.320312 189.117188 85.042969 187 84.667969 C 183.761719 84.425781 177.984375 88.007812 180.09375 90.878906 C 180.921875 91.839844 182.222656 91.359375 183.074219 90.679688 Z M 183.074219 90.679688 "/><path style=" stroke:none;fill-rule:nonzero;fill:#8de7dd;fill-opacity:1;" d="M 160.566406 66.488281 C 160.867188 66.648438 161.230469 66.65625 161.554688 66.542969 C 162.753906 66.136719 163.878906 65.539062 165.050781 65.058594 C 165.941406 64.683594 167 64.542969 167.804688 63.988281 C 168.074219 63.804688 168.277344 63.523438 168.335938 63.199219 C 168.785156 60.632812 158.089844 65.175781 160.566406 66.488281 Z M 160.566406 66.488281 "/><path style=" stroke:none;fill-rule:nonzero;fill:#8de7dd;fill-opacity:1;" d="M 100.6875 90.933594 C 100.324219 91.664062 100.164062 92.394531 100.207031 93.121094 C 100.242188 93.675781 100.382812 94.210938 100.628906 94.730469 C 100.742188 94.964844 100.589844 95.234375 100.335938 95.257812 C 99.574219 95.335938 98.890625 95.546875 98.285156 95.902344 C 97.53125 96.34375 96.945312 96.988281 96.519531 97.84375 C 96.015625 98.855469 95.859375 99.878906 96.050781 100.914062 C 96.246094 101.949219 96.753906 102.929688 97.582031 103.855469 C 98.410156 104.78125 99.507812 105.585938 100.875 106.265625 C 102.242188 106.949219 103.550781 107.34375 104.796875 107.449219 C 106.042969 107.554688 107.140625 107.375 108.089844 106.90625 C 109.039062 106.441406 109.765625 105.703125 110.269531 104.691406 C 110.695312 103.839844 110.855469 102.976562 110.753906 102.113281 C 110.671875 101.417969 110.425781 100.742188 110.019531 100.085938 C 109.882812 99.863281 110.011719 99.578125 110.265625 99.527344 C 110.839844 99.417969 111.355469 99.207031 111.816406 98.902344 C 112.421875 98.5 112.910156 97.929688 113.273438 97.199219 C 113.746094 96.253906 113.890625 95.296875 113.710938 94.335938 C 113.53125 93.371094 113.058594 92.464844 112.292969 91.605469 C 111.527344 90.75 110.523438 90.011719 109.277344 89.394531 C 108.050781 88.78125 106.867188 88.429688 105.730469 88.339844 C 104.59375 88.25 103.585938 88.421875 102.710938 88.855469 C 101.832031 89.292969 101.160156 89.984375 100.6875 90.933594 Z M 106.503906 102.671875 C 106.148438 103.386719 105.589844 103.820312 104.824219 103.972656 C 104.058594 104.125 103.203125 103.96875 102.257812 103.496094 C 101.324219 103.03125 100.691406 102.453125 100.355469 101.765625 C 100.023438 101.074219 100.035156 100.363281 100.398438 99.632812 C 100.753906 98.917969 101.308594 98.488281 102.0625 98.339844 C 102.816406 98.1875 103.65625 98.347656 104.589844 98.8125 C 105.539062 99.28125 106.183594 99.863281 106.527344 100.558594 C 106.867188 101.253906 106.859375 101.957031 106.503906 102.671875 Z M 104.359375 92.964844 C 104.675781 92.328125 105.152344 91.941406 105.792969 91.804688 C 106.433594 91.667969 107.136719 91.789062 107.894531 92.167969 C 108.671875 92.554688 109.203125 93.046875 109.488281 93.644531 C 109.773438 94.238281 109.753906 94.859375 109.4375 95.496094 C 109.128906 96.117188 108.652344 96.488281 108.007812 96.613281 C 107.363281 96.742188 106.65625 96.609375 105.878906 96.222656 C 105.101562 95.835938 104.578125 95.351562 104.304688 94.769531 C 104.027344 94.1875 104.046875 93.585938 104.359375 92.964844 Z M 104.359375 92.964844 "/><path style=" stroke:none;fill-rule:nonzero;fill:#8de7dd;fill-opacity:1;" d="M 185.128906 93.675781 C 183.1875 95.828125 182.230469 97.96875 182.253906 100.09375 C 182.277344 102.21875 183.238281 104.132812 185.132812 105.84375 C 186.085938 106.703125 187.121094 107.300781 188.230469 107.636719 C 189.339844 107.972656 190.429688 108 191.5 107.722656 C 192.566406 107.449219 193.503906 106.859375 194.320312 105.957031 C 195.074219 105.117188 195.53125 104.191406 195.695312 103.183594 C 195.859375 102.171875 195.742188 101.175781 195.347656 100.1875 C 194.953125 99.199219 194.320312 98.316406 193.460938 97.539062 C 192.300781 96.496094 191.113281 95.898438 189.898438 95.75 C 189.578125 95.710938 189.453125 95.308594 189.699219 95.101562 C 190.691406 94.273438 191.707031 93.832031 192.746094 93.777344 C 194.023438 93.710938 195.234375 94.195312 196.378906 95.230469 C 197.277344 96.039062 197.878906 96.898438 198.191406 97.8125 C 198.261719 98.015625 198.480469 98.121094 198.679688 98.042969 L 201.214844 97.058594 C 201.402344 96.988281 201.5 96.78125 201.433594 96.59375 C 201.222656 95.984375 200.902344 95.363281 200.464844 94.722656 C 199.945312 93.964844 199.324219 93.257812 198.605469 92.609375 C 197.238281 91.375 195.777344 90.578125 194.230469 90.207031 C 192.679688 89.839844 191.121094 89.941406 189.554688 90.515625 C 187.988281 91.089844 186.511719 92.144531 185.128906 93.675781 Z M 186.503906 99.191406 C 187.039062 98.597656 187.695312 98.308594 188.476562 98.324219 C 189.257812 98.339844 189.992188 98.652344 190.671875 99.269531 C 191.367188 99.894531 191.761719 100.582031 191.847656 101.328125 C 191.9375 102.074219 191.703125 102.753906 191.144531 103.375 C 190.585938 103.992188 189.933594 104.292969 189.191406 104.277344 C 188.445312 104.261719 187.738281 103.949219 187.066406 103.34375 C 186.332031 102.683594 185.921875 101.972656 185.832031 101.214844 C 185.746094 100.460938 185.96875 99.785156 186.503906 99.191406 Z M 186.503906 99.191406 "/><path style=" stroke:none;fill-rule:nonzero;fill:#8de7dd;fill-opacity:1;" d="M 141.546875 90.457031 L 141.398438 93.09375 C 141.386719 93.300781 141.542969 93.476562 141.75 93.488281 L 148.300781 93.855469 C 148.621094 93.875 148.769531 94.261719 148.542969 94.488281 L 145.242188 97.828125 C 145.179688 97.894531 145.140625 97.976562 145.132812 98.070312 L 145.007812 100.339844 C 144.992188 100.542969 145.152344 100.71875 145.355469 100.730469 L 146.910156 100.816406 C 149.179688 100.945312 150.273438 101.753906 150.1875 103.246094 C 150.144531 103.988281 149.808594 104.550781 149.179688 104.921875 C 148.550781 105.296875 147.707031 105.453125 146.652344 105.394531 C 145.699219 105.339844 144.773438 105.144531 143.878906 104.804688 C 143.128906 104.523438 142.460938 104.160156 141.871094 103.722656 C 141.691406 103.589844 141.441406 103.640625 141.328125 103.832031 L 139.886719 106.3125 C 139.792969 106.476562 139.835938 106.683594 139.992188 106.796875 C 140.773438 107.378906 141.707031 107.847656 142.800781 108.214844 C 144.023438 108.621094 145.273438 108.859375 146.554688 108.933594 C 148.199219 109.027344 149.605469 108.835938 150.773438 108.363281 C 151.9375 107.890625 152.824219 107.222656 153.429688 106.363281 C 154.03125 105.5 154.367188 104.542969 154.425781 103.484375 C 154.503906 102.117188 154.140625 100.945312 153.34375 99.96875 C 152.65625 99.125 151.667969 98.511719 150.390625 98.136719 C 150.121094 98.058594 150.039062 97.71875 150.234375 97.523438 L 154.054688 93.632812 C 154.117188 93.570312 154.15625 93.484375 154.160156 93.394531 L 154.28125 91.175781 C 154.296875 90.96875 154.136719 90.792969 153.933594 90.78125 L 141.9375 90.105469 C 141.734375 90.097656 141.558594 90.253906 141.546875 90.457031 Z M 141.546875 90.457031 "/><path style=" stroke:none;fill-rule:nonzero;fill:#8de7dd;fill-opacity:1;" d="M 121.605469 78.492188 C 122.316406 79.285156 123.117188 79.976562 124.007812 80.5625 C 125.164062 81.324219 126.257812 81.78125 127.285156 81.933594 C 128.316406 82.089844 129.222656 81.988281 130.011719 81.632812 C 130.796875 81.277344 131.4375 80.726562 131.925781 79.984375 C 132.683594 78.832031 132.863281 77.636719 132.464844 76.390625 C 132.070312 75.148438 130.980469 73.9375 129.199219 72.765625 L 128.507812 72.308594 C 128.324219 72.1875 128.285156 71.9375 128.417969 71.769531 L 129.683594 70.167969 C 129.800781 70.015625 130.019531 69.980469 130.179688 70.089844 L 134.855469 73.171875 C 135.027344 73.285156 135.257812 73.238281 135.371094 73.066406 L 136.453125 71.421875 C 136.566406 71.25 136.519531 71.019531 136.347656 70.90625 L 129.230469 66.214844 C 129.070312 66.109375 128.855469 66.144531 128.734375 66.292969 L 124.03125 72.148438 C 123.894531 72.316406 123.933594 72.570312 124.117188 72.691406 L 127.007812 74.597656 C 128.089844 75.308594 128.761719 75.945312 129.027344 76.5 C 129.289062 77.058594 129.25 77.597656 128.90625 78.121094 C 128.578125 78.621094 128.109375 78.871094 127.503906 78.871094 C 126.898438 78.871094 126.230469 78.628906 125.496094 78.144531 C 124.832031 77.710938 124.25 77.1875 123.753906 76.585938 C 123.34375 76.09375 123.019531 75.582031 122.777344 75.046875 C 122.6875 74.851562 122.453125 74.773438 122.265625 74.875 L 120.34375 75.917969 C 120.171875 76.011719 120.101562 76.222656 120.183594 76.402344 C 120.515625 77.105469 120.988281 77.800781 121.605469 78.492188 Z M 121.605469 78.492188 "/><path style=" stroke:none;fill-rule:nonzero;fill:#8de7dd;fill-opacity:1;" d="M 167.335938 82.449219 C 167.484375 82.59375 167.722656 82.585938 167.863281 82.4375 L 169.25 80.980469 C 169.390625 80.832031 169.386719 80.597656 169.234375 80.457031 L 165.484375 76.886719 C 165.238281 76.652344 165.410156 76.238281 165.75 76.246094 L 169.5 76.328125 C 170.832031 76.367188 171.863281 76.257812 172.59375 75.992188 C 173.324219 75.726562 173.960938 75.308594 174.511719 74.734375 C 175.113281 74.097656 175.46875 73.386719 175.578125 72.59375 C 175.683594 71.800781 175.554688 70.988281 175.1875 70.148438 C 174.820312 69.3125 174.230469 68.503906 173.414062 67.730469 C 172.445312 66.804688 171.417969 66.15625 170.332031 65.789062 C 169.398438 65.46875 168.488281 65.367188 167.605469 65.476562 C 167.382812 65.507812 167.234375 65.726562 167.292969 65.941406 L 167.863281 68.136719 C 167.910156 68.316406 168.074219 68.429688 168.257812 68.414062 C 168.742188 68.371094 169.214844 68.429688 169.671875 68.585938 C 170.226562 68.777344 170.742188 69.101562 171.222656 69.558594 C 171.796875 70.105469 172.125 70.632812 172.207031 71.144531 C 172.289062 71.65625 172.128906 72.121094 171.726562 72.542969 C 171.449219 72.835938 171.089844 73.054688 170.648438 73.203125 C 170.210938 73.351562 169.570312 73.417969 168.726562 73.402344 L 160.992188 73.234375 C 160.890625 73.230469 160.789062 73.273438 160.714844 73.347656 L 159.574219 74.546875 C 159.433594 74.695312 159.441406 74.929688 159.589844 75.074219 Z M 167.335938 82.449219 "/><g style="fill:#d9d9d9;fill-opacity:1;"><g transform="translate(81.258604, 88.845421)"><path style="stroke:none" d="M 16.375 -19.90625 L 12.640625 -15.359375 L -9.15625 -18.453125 L 5.359375 -6.515625 L 1.625 -1.96875 L -20.453125 -20.125 L -16.71875 -24.671875 L 5.140625 -21.578125 L -9.421875 -33.546875 L -5.703125 -38.0625 Z M 16.375 -19.90625 "/></g></g><g style="fill:#d9d9d9;fill-opacity:1;"><g transform="translate(96.596501, 69.535474)"><path style="stroke:none" d="M 4.53125 -37.15625 L 14.859375 -21.421875 C 16.566406 -18.804688 17.101562 -16.203125 16.46875 -13.609375 C 15.84375 -11.015625 14.109375 -8.785156 11.265625 -6.921875 C 8.484375 -5.097656 5.785156 -4.382812 3.171875 -4.78125 C 0.566406 -5.1875 -1.597656 -6.664062 -3.328125 -9.21875 L -13.765625 -25.140625 L -8.859375 -28.359375 L 1.484375 -12.59375 C 2.515625 -11.03125 3.632812 -10.132812 4.84375 -9.90625 C 6.0625 -9.6875 7.332031 -10.007812 8.65625 -10.875 C 11.425781 -12.695312 11.878906 -15.078125 10.015625 -18.015625 L -0.40625 -33.90625 Z M 4.53125 -37.15625 "/></g></g><g style="fill:#d9d9d9;fill-opacity:1;"><g transform="translate(114.626422, 55.999902)"><path style="stroke:none" d="M 3.125 -30.203125 L 15.1875 -11.8125 L 17.328125 -33.6875 L 24.84375 -35.53125 L 31.671875 -7.78125 L 25.9375 -6.375 L 24.078125 -13.96875 L 21.421875 -27.203125 L 19.015625 -4.671875 L 15.09375 -3.71875 L 2.53125 -22.53125 L 6.328125 -9.609375 L 8.1875 -2.015625 L 2.46875 -0.609375 L -4.359375 -28.359375 Z M 3.125 -30.203125 "/></g></g><g style="fill:#d9d9d9;fill-opacity:1;"><g transform="translate(144.788193, 48.690151)"><path style="stroke:none" d="M 2.53125 0.234375 L 5.21875 -28.21875 L 15.1875 -27.28125 C 18.644531 -26.945312 21.203125 -26.035156 22.859375 -24.546875 C 24.515625 -23.054688 25.222656 -21.03125 24.984375 -18.46875 C 24.847656 -17.082031 24.375 -15.890625 23.5625 -14.890625 C 22.75 -13.898438 21.675781 -13.222656 20.34375 -12.859375 C 21.769531 -12.335938 22.847656 -11.484375 23.578125 -10.296875 C 24.316406 -9.117188 24.613281 -7.734375 24.46875 -6.140625 C 24.207031 -3.398438 23.140625 -1.410156 21.265625 -0.171875 C 19.390625 1.066406 16.832031 1.550781 13.59375 1.28125 Z M 9.578125 -11.578125 L 8.84375 -3.921875 L 13.859375 -3.453125 C 15.242188 -3.328125 16.351562 -3.554688 17.1875 -4.140625 C 18.019531 -4.722656 18.492188 -5.59375 18.609375 -6.75 C 18.847656 -9.34375 17.625 -10.785156 14.9375 -11.078125 Z M 9.96875 -15.71875 L 14.296875 -15.3125 C 17.253906 -15.082031 18.84375 -16.125 19.0625 -18.4375 C 19.1875 -19.726562 18.898438 -20.691406 18.203125 -21.328125 C 17.503906 -21.960938 16.347656 -22.359375 14.734375 -22.515625 L 10.640625 -22.890625 Z M 9.96875 -15.71875 "/></g></g><g style="fill:#d9d9d9;fill-opacity:1;"><g transform="translate(167.027647, 50.54532)"><path style="stroke:none" d="M 22.828125 -4.625 L 12.25 -8.609375 L 9.5625 -1.46875 L 21.984375 3.203125 L 20.3125 7.640625 L 2.390625 0.890625 L 12.453125 -25.859375 L 30.328125 -19.125 L 28.640625 -14.640625 L 16.265625 -19.296875 L 13.875 -12.9375 L 24.453125 -8.953125 Z M 22.828125 -4.625 "/></g></g><g style="fill:#d9d9d9;fill-opacity:1;"><g transform="translate(185.34457, 56.748845)"><path style="stroke:none" d="M 16.765625 -0.78125 L 12.96875 -3.53125 L 6.84375 4.9375 L 2.0625 1.484375 L 18.796875 -21.6875 L 27.40625 -15.453125 C 30.144531 -13.484375 31.816406 -11.347656 32.421875 -9.046875 C 33.023438 -6.753906 32.519531 -4.492188 30.90625 -2.265625 C 29.769531 -0.691406 28.472656 0.375 27.015625 0.9375 C 25.566406 1.5 23.925781 1.59375 22.09375 1.21875 L 20.28125 14.28125 L 20.109375 14.515625 L 14.984375 10.828125 Z M 15.765625 -7.40625 L 19.609375 -4.625 C 20.804688 -3.757812 21.953125 -3.390625 23.046875 -3.515625 C 24.148438 -3.648438 25.09375 -4.253906 25.875 -5.328125 C 26.65625 -6.421875 26.960938 -7.503906 26.796875 -8.578125 C 26.628906 -9.648438 25.898438 -10.648438 24.609375 -11.578125 L 20.78125 -14.359375 Z M 15.765625 -7.40625 "/></g></g><g style="fill:#d9d9d9;fill-opacity:1;"><g transform="translate(203.588965, 69.415363)"><path style="stroke:none" d="M 16.640625 8.984375 C 17.503906 8.296875 17.925781 7.457031 17.90625 6.46875 C 17.894531 5.488281 17.515625 3.992188 16.765625 1.984375 C 16.023438 -0.0234375 15.539062 -1.695312 15.3125 -3.03125 C 14.675781 -6.664062 15.523438 -9.40625 17.859375 -11.25 C 19.078125 -12.207031 20.425781 -12.71875 21.90625 -12.78125 C 23.394531 -12.84375 24.910156 -12.441406 26.453125 -11.578125 C 28.003906 -10.722656 29.410156 -9.5 30.671875 -7.90625 C 31.921875 -6.3125 32.75 -4.65625 33.15625 -2.9375 C 33.570312 -1.226562 33.519531 0.382812 33 1.90625 C 32.488281 3.4375 31.5625 4.734375 30.21875 5.796875 L 26.578125 1.1875 C 27.597656 0.375 28.132812 -0.578125 28.1875 -1.671875 C 28.25 -2.773438 27.816406 -3.910156 26.890625 -5.078125 C 26.003906 -6.210938 25.078125 -6.90625 24.109375 -7.15625 C 23.140625 -7.40625 22.265625 -7.222656 21.484375 -6.609375 C 20.753906 -6.023438 20.4375 -5.171875 20.53125 -4.046875 C 20.625 -2.921875 21.007812 -1.476562 21.6875 0.28125 C 22.976562 3.539062 23.507812 6.226562 23.28125 8.34375 C 23.050781 10.46875 22.0625 12.21875 20.3125 13.59375 C 18.375 15.125 16.273438 15.585938 14.015625 14.984375 C 11.753906 14.390625 9.644531 12.847656 7.6875 10.359375 C 6.320312 8.640625 5.394531 6.820312 4.90625 4.90625 C 4.425781 3 4.441406 1.238281 4.953125 -0.375 C 5.460938 -1.988281 6.441406 -3.363281 7.890625 -4.5 L 11.546875 0.140625 C 9.078125 2.085938 9.007812 4.535156 11.34375 7.484375 C 12.207031 8.585938 13.101562 9.269531 14.03125 9.53125 C 14.96875 9.789062 15.835938 9.609375 16.640625 8.984375 Z M 16.640625 8.984375 "/></g></g><g style="fill:#d9d9d9;fill-opacity:1;"><g transform="translate(80.442267, 134.987928)"><path style="stroke:none" d="M 11.078125 -4.578125 L 8.203125 -5.75 L 5.015625 2.046875 L 3.078125 1.265625 L 6.265625 -6.53125 L 3.453125 -7.6875 L 4.09375 -9.25 L 11.71875 -6.140625 Z M 11.078125 -4.578125 "/></g></g><g style="fill:#d9d9d9;fill-opacity:1;"><g transform="translate(93.279819, 139.985519)"><path style="stroke:none" d="M 2.96875 1 L 0.984375 0.328125 L 4.203125 -9.25 L 6.1875 -8.578125 Z M 2.96875 1 "/></g></g><g style="fill:#d9d9d9;fill-opacity:1;"><g transform="translate(101.981181, 142.881059)"><path style="stroke:none" d="M 6.03125 -8.890625 L 6.71875 -1.140625 L 11.03125 -7.609375 L 13.6875 -6.9375 L 11.171875 2.859375 L 9.15625 2.34375 L 9.84375 -0.328125 L 11.234375 -4.890625 L 6.703125 1.71875 L 5.328125 1.375 L 4.5625 -6.609375 L 3.578125 -1.9375 L 2.890625 0.734375 L 0.875 0.21875 L 3.390625 -9.578125 Z M 6.03125 -8.890625 "/></g></g><g style="fill:#d9d9d9;fill-opacity:1;"><g transform="translate(119.021707, 146.937209)"><path style="stroke:none" d="M 7.625 -3.15625 L 3.671875 -3.8125 L 3.21875 -1.15625 L 7.84375 -0.375 L 7.5625 1.28125 L 0.890625 0.15625 L 2.5625 -9.8125 L 9.234375 -8.6875 L 8.96875 -7.03125 L 4.34375 -7.8125 L 3.9375 -5.4375 L 7.890625 -4.78125 Z M 7.625 -3.15625 "/></g></g><g style="fill:#d9d9d9;fill-opacity:1;"><g transform="translate(131.837538, 148.880135)"><path style="stroke:none" d=""/></g></g><g style="fill:#d9d9d9;fill-opacity:1;"><g transform="translate(140.312512, 149.723718)"><path style="stroke:none" d="M 8.890625 -8.015625 L 5.8125 -8.15625 L 5.421875 0.25 L 3.328125 0.15625 L 3.71875 -8.25 L 0.671875 -8.390625 L 0.75 -10.078125 L 8.96875 -9.703125 Z M 8.890625 -8.015625 "/></g></g><g style="fill:#d9d9d9;fill-opacity:1;"><g transform="translate(154.145496, 150.183704)"><path style="stroke:none" d="M 9.046875 -5.125 C 9.078125 -4.125 8.929688 -3.242188 8.609375 -2.484375 C 8.285156 -1.722656 7.800781 -1.128906 7.15625 -0.703125 C 6.507812 -0.273438 5.765625 -0.046875 4.921875 -0.015625 C 4.078125 0.00390625 3.320312 -0.171875 2.65625 -0.546875 C 1.988281 -0.929688 1.460938 -1.488281 1.078125 -2.21875 C 0.691406 -2.957031 0.476562 -3.8125 0.4375 -4.78125 L 0.421875 -5.28125 C 0.390625 -6.28125 0.539062 -7.164062 0.875 -7.9375 C 1.207031 -8.707031 1.691406 -9.304688 2.328125 -9.734375 C 2.972656 -10.160156 3.71875 -10.382812 4.5625 -10.40625 C 5.40625 -10.4375 6.160156 -10.257812 6.828125 -9.875 C 7.492188 -9.488281 8.019531 -8.921875 8.40625 -8.171875 C 8.789062 -7.429688 9 -6.566406 9.03125 -5.578125 Z M 6.921875 -5.515625 C 6.878906 -6.578125 6.660156 -7.378906 6.265625 -7.921875 C 5.867188 -8.460938 5.320312 -8.71875 4.625 -8.6875 C 3.925781 -8.664062 3.394531 -8.375 3.03125 -7.8125 C 2.664062 -7.257812 2.5 -6.457031 2.53125 -5.40625 L 2.546875 -4.921875 C 2.578125 -3.890625 2.789062 -3.09375 3.1875 -2.53125 C 3.59375 -1.96875 4.15625 -1.695312 4.875 -1.71875 C 5.570312 -1.75 6.097656 -2.046875 6.453125 -2.609375 C 6.804688 -3.171875 6.96875 -3.976562 6.9375 -5.03125 Z M 6.921875 -5.515625 "/></g></g><g style="fill:#d9d9d9;fill-opacity:1;"><g transform="translate(168.926928, 149.43477)"><path style="stroke:none" d=""/></g></g><g style="fill:#d9d9d9;fill-opacity:1;"><g transform="translate(177.400912, 148.539188)"><path style="stroke:none" d="M 2.390625 -3.984375 L 2.953125 -0.46875 L 0.890625 -0.140625 L -0.71875 -10.125 L 3.171875 -10.75 C 3.921875 -10.875 4.601562 -10.84375 5.21875 -10.65625 C 5.832031 -10.476562 6.332031 -10.160156 6.71875 -9.703125 C 7.101562 -9.242188 7.347656 -8.691406 7.453125 -8.046875 C 7.609375 -7.078125 7.398438 -6.253906 6.828125 -5.578125 C 6.253906 -4.898438 5.375 -4.46875 4.1875 -4.28125 Z M 2.125 -5.65625 L 3.953125 -5.953125 C 4.492188 -6.046875 4.890625 -6.242188 5.140625 -6.546875 C 5.390625 -6.847656 5.472656 -7.234375 5.390625 -7.703125 C 5.316406 -8.191406 5.109375 -8.5625 4.765625 -8.8125 C 4.421875 -9.070312 3.992188 -9.164062 3.484375 -9.09375 L 1.609375 -8.78125 Z M 2.125 -5.65625 "/></g></g><g style="fill:#d9d9d9;fill-opacity:1;"><g transform="translate(191.379186, 146.068936)"><path style="stroke:none" d="M 2.515625 -2.3125 L 6.8125 -3.34375 L 7.203125 -1.71875 L 0.875 -0.203125 L -1.46875 -10.03125 L 0.5625 -10.515625 Z M 2.515625 -2.3125 "/></g></g><g style="fill:#d9d9d9;fill-opacity:1;"><g transform="translate(203.724291, 142.965971)"><path style="stroke:none" d="M 5.65625 -4 L 2.171875 -2.890625 L 2.15625 -0.6875 L 0.046875 -0.015625 L 0.546875 -10.78125 L 2.390625 -11.375 L 9.078125 -2.90625 L 6.96875 -2.234375 Z M 2.203125 -4.671875 L 4.625 -5.4375 L 2.25 -8.640625 Z M 2.203125 -4.671875 "/></g></g><g style="fill:#d9d9d9;fill-opacity:1;"><g transform="translate(217.571473, 138.315189)"><path style="stroke:none" d="M 1.96875 -6.796875 L 2.171875 -11.8125 L 4.28125 -12.671875 L 3.65625 -5.46875 L 5.046875 -2.0625 L 3.078125 -1.265625 L 1.6875 -4.671875 L -3.8125 -9.359375 L -1.703125 -10.234375 Z M 1.96875 -6.796875 "/></g></g></g></svg>